{"title":"The.Spiral.Staircase.1945.HQTV.720p.x264.AC3.[FrOnkY]","uid":11489042,"size":3035228208,"categoryP":"video","categoryS":"hd___movies","magnet":"?xt=urn:btih:9ffdce29de2b14f56788342d1ea7c0738d0fb64c&amp;dn=The.Spiral.Staircase.1945.HQTV.720p.x264.AC3.%5BFrOnkY%5D&amp;tr=udp%3A%2F%2Ftracker.openbittorrent.com%3A80&amp;tr=udp%3A%2F%2Fopen.demonii.com%3A1337&amp;tr=udp%3A%2F%2Ftracker.coppersurfer.tk%3A6969&amp;tr=udp%3A%2F%2Fexodus.desync.com%3A6969","seeders":1,"leechers":0,"uploader":"HDmEntEs","files":-1,"time":1416248081,"description":"InSpiral\n\n\nThe.Spiral.Staircase.(La.Escalera.De.Caracol).1945.HQTV.720p.x264.AC3.[FrOnkY].mkv\n\n\nFormat                                   : Matroska\nFormat version                           : Version 4 / Version 2\nFile size                                : 2.83 GiB\nDuration                                 : 1h 23mn\nOverall bit rate                         : 4 842 Kbps\nWriting application                      : mkvmerge v6.9.1 ('Blue Panther') 32bit built on Apr 18 2014 18:15:44\nWriting library                          : libebml v1.3.0 + libmatroska v1.4.1\nAttachment                               : Yes / Yes / Yes / Yes / Yes\n\nVideo\nID                                       : 1\nFormat                                   : AVC\nFormat/Info                              : Advanced Video Codec\nFormat profile                           : &lt;a class=&quot;__cf_email__&quot; href=&quot;/cdn-cgi/l/email-protection&quot; data-cfemail=&quot;1b53727c735b572f352a&quot;&gt;[email&amp;#160;protected]&lt;/a&gt;&lt;script cf-hash='f9e31' type=&quot;text/javascript&quot;&gt;\n/* &lt;![CDATA[ */!function(){try{var t=&quot;currentScript&quot;in document?document.currentScript:function(){for(var t=document.getElementsByTagName(&quot;script&quot;),e=t.length;e--;)if(t[e].getAttribute(&quot;cf-hash&quot;))return t[e]}();if(t&amp;&amp;t.previousSibling){var e,r,n,i,c=t.previousSibling,a=c.getAttribute(&quot;data-cfemail&quot;);if(a){for(e=&quot;&quot;,r=parseInt(a.substr(0,2),16),n=2;a.length-n;n+=2)i=parseInt(a.substr(n,2),16)^r,e+=String.fromCharCode(i);e=document.createTextNode(e),c.parentNode.replaceChild(e,c)}}}catch(u){}}();/* ]]&gt; */&lt;/script&gt;\nFormat settings, CABAC                   : Yes\nFormat settings, ReFrames                : 11 frames\nCodec ID                                 : V_MPEG4/ISO/AVC\nDuration                                 : 1h 23mn\nBit rate                                 : 4 444 Kbps\nWidth                                    : 968 pixels\nHeight                                   : 720 pixels\nDisplay aspect ratio                     : 4:3\nFrame rate mode                          : Constant\nFrame rate                               : 23.976 fps\nColor space                              : YUV\nChroma subsampling                       : 4:2:0\nBit depth                                : 8 bits\nScan type                                : Progressive\nBits/(Pixel*Frame)                       : 0.266\nStream size                              : 2.55 GiB (90%)\nWriting library                          : x264 core 142 r2389 956c8d8\nLanguage                                 : English\nDefault                                  : Yes\nForced                                   : No\n\nAudio #1\nID                                       : 2\nFormat                                   : AC-3\nFormat/Info                              : Audio Coding 3\nMode extension                           : CM (complete main)\nFormat settings, Endianness              : Big\nCodec ID                                 : A_AC3\nDuration                                 : 1h 23mn\nBit rate mode                            : Constant\nBit rate                                 : 192 Kbps\nChannel(s)                               : 2 channels\nChannel positions                        : Front: L R\nSampling rate                            : 48.0 KHz\nBit depth                                : 16 bits\nStream size                              : 115 MiB (4%)\nLanguage                                 : English\nDefault                                  : Yes\nForced                                   : No\n\nAudio #2\nID                                       : 3\nFormat                                   : AC-3\nFormat/Info                              : Audio Coding 3\nMode extension                           : CM (complete main)\nFormat settings, Endianness              : Big\nCodec ID                                 : A_AC3\nDuration                                 : 1h 23mn\nBit rate mode                            : Constant\nBit rate                                 : 192 Kbps\nChannel(s)                               : 2 channels\nChannel positions                        : Front: L R\nSampling rate                            : 48.0 KHz\nBit depth                                : 16 bits\nStream size                              : 115 MiB (4%)\nLanguage                                 : Spanish\nDefault                                  : No\nForced                                   : No\n\nText #1\nID                                       : 4\nFormat                                   : UTF-8\nCodec ID                                 : S_TEXT/UTF8\nCodec ID/Info                            : UTF-8 Plain Text\nLanguage                                 : Spanish\nDefault                                  : Yes\nForced                                   : No\n\nText #2\nID                                       : 5\nFormat                                   : UTF-8\nCodec ID                                 : S_TEXT/UTF8\nCodec ID/Info                            : UTF-8 Plain Text\nLanguage                                 : English\nDefault                                  : No\nForced                                   : No\n\nText #3\nID                                       : 6\nFormat                                   : UTF-8\nCodec ID                                 : S_TEXT/UTF8\nCodec ID/Info                            : UTF-8 Plain Text\nLanguage                                 : French\nDefault                                  : No\nForced                                   : No\n\nText #4\nID                                       : 7\nFormat                                   : UTF-8\nCodec ID                                 : S_TEXT/UTF8\nCodec ID/Info                            : UTF-8 Plain Text\nLanguage                                 : Portuguese\nDefault                                  : No\nForced                                   : No\n\nMenu\n00:00:00.000                             : en:Chapter 01\n00:04:35.100                             : en:Chapter 02\n00:07:53.901                             : en:Chapter 03\n00:10:40.168                             : en:Chapter 04\n00:13:20.502                             : en:Chapter 05\n00:21:17.702                             : en:Chapter 06\n00:23:17.936                             : en:Chapter 07\n00:27:26.537                             : en:Chapter 08\n00:33:10.438                             : en:Chapter 09\n00:37:30.972                             : en:Chapter 10\n00:42:21.840                             : en:Chapter 11\n00:44:32.907                             : en:Chapter 12\n00:50:24.441                             : en:Chapter 13\n00:54:31.975                             : en:Chapter 14\n00:58:15.142                             : en:Chapter 15\n01:05:04.642                             : en:Chapter 16\n01:08:21.809                             : en:Chapter 17\n01:16:16.842                             : en:Chapter 18\n01:21:41.842                             : en:Chapter 19\n01:23:12.842                             : en:Chapter 20\n01:23:35.042                             : en:Chapter 21\n\n &lt;a href=&quot;\nhttps://box.jisko.net/i/bffcbd3a.png&quot; rel=&quot;nofollow&quot; target=&quot;_NEW&quot;&gt;\nhttps://box.jisko.net/i/bffcbd3a.png&lt;/a&gt; &lt;a href=&quot;\nhttps://box.jisko.net/i/88c9f68c.png&quot; rel=&quot;nofollow&quot; target=&quot;_NEW&quot;&gt;\nhttps://box.jisko.net/i/88c9f68c.png&lt;/a&gt;\n &lt;a href=&quot;\nhttps://box.jisko.net/i/e701eceb.png&quot; rel=&quot;nofollow&quot; target=&quot;_NEW&quot;&gt;\nhttps://box.jisko.net/i/e701eceb.png&lt;/a&gt;\n &lt;a href=&quot;\nhttps://box.jisko.net/i/bdcb640a.png&quot; rel=&quot;nofollow&quot; target=&quot;_NEW&quot;&gt;\nhttps://box.jisko.net/i/bdcb640a.png&lt;/a&gt;\n &lt;a href=&quot;\nhttps://box.jisko.net/i/c5416df0.png&quot; rel=&quot;nofollow&quot; target=&quot;_NEW&quot;&gt;\nhttps://box.jisko.net/i/c5416df0.png&lt;/a&gt;","torrent":{"xt":"urn:btih:9ffdce29de2b14f56788342d1ea7c0738d0fb64c","amp;dn":"The.Spiral.Staircase.1945.HQTV.720p.x264.AC3.%5BFrOnkY%5D","amp;tr":["udp%3A%2F%2Ftracker.openbittorrent.com%3A80","udp%3A%2F%2Fopen.demonii.com%3A1337","udp%3A%2F%2Ftracker.coppersurfer.tk%3A6969","udp%3A%2F%2Fexodus.desync.com%3A6969"],"infoHash":"9ffdce29de2b14f56788342d1ea7c0738d0fb64c","infoHashBuffer":{"type":"Buffer","data":[159,253,206,41,222,43,20,245,103,136,52,45,30,167,192,115,141,15,182,76]},"announce":[],"urlList":[]}}